<svg width="27" height="28" viewBox="0 0 27 28" fill="none" xmlns="http://www.w3.org/2000/svg">
<path d="M5.66651 3.10155C5.66614 3.92372 5.36727 4.71206 4.83567 5.29313C4.30407 5.8742 3.58327 6.20041 2.83184 6.2C2.08041 6.19959 1.35991 5.87259 0.82884 5.29094C0.297767 4.70928 -0.000375358 3.92062 3.54669e-07 3.09845C0.000376068 2.27628 0.299239 1.48795 0.830844 0.906873C1.36245 0.325801 2.08325 -0.000410698 2.83467 3.8806e-07C3.5861 0.000411474 4.3066 0.327412 4.83767 0.909065C5.36875 1.49072 5.66689 2.27938 5.66651 3.10155ZM5.75151 8.49555H0.084998V27.9016H5.75151V8.49555ZM14.7046 8.49555H9.06642V27.9016H14.6479V17.7181C14.6479 12.0451 21.4053 11.5181 21.4053 17.7181V27.9016H27.0009V15.6101C27.0009 6.04655 16.9995 6.40305 14.6479 11.0996L14.7046 8.49555Z" fill="white"/>
</svg>
