<svg width="30" height="27" viewBox="0 0 30 27" fill="none" xmlns="http://www.w3.org/2000/svg">
<path d="M29.6359 3.1C28.5451 3.6425 27.3693 3.999 26.151 4.1695C27.3976 3.348 28.3609 2.046 28.8142 0.4805C27.6384 1.2555 26.3351 1.798 24.961 2.108C23.8418 0.775 22.2694 0 20.4844 0C17.1554 0 14.4354 2.976 14.4354 6.6495C14.4354 7.1765 14.4921 7.688 14.5913 8.1685C9.54807 7.8895 5.05736 5.239 2.06828 1.2245C1.54412 2.201 1.24663 3.348 1.24663 4.557C1.24663 6.8665 2.3091 8.9125 3.95239 10.075C2.94659 10.075 2.01161 9.765 1.18997 9.3V9.3465C1.18997 12.5705 3.28658 15.2675 6.06317 15.872C5.17188 16.1401 4.23577 16.1772 3.32908 15.9805C3.71384 17.3018 4.46739 18.458 5.48379 19.2865C6.50019 20.1151 7.72834 20.5742 8.99559 20.5995C6.84751 22.4603 4.18473 23.4661 1.44496 23.4515C0.963307 23.4515 0.481654 23.4205 0 23.3585C2.69159 25.2495 5.89317 26.35 9.32141 26.35C20.4844 26.35 26.6184 16.213 26.6184 7.4245C26.6184 7.13 26.6184 6.851 26.6043 6.5565C27.7942 5.6265 28.8142 4.4485 29.6359 3.1Z" fill="white"/>
</svg>
