<svg width="29" height="22" viewBox="0 0 29 22" fill="none" xmlns="http://www.w3.org/2000/svg">
<path d="M11.333 15.5L18.6853 10.85L11.333 6.2V15.5ZM27.7092 3.3635C27.8934 4.092 28.0209 5.0685 28.1059 6.3085C28.2051 7.5485 28.2476 8.618 28.2476 9.548L28.3326 10.85C28.3326 14.2445 28.1059 16.74 27.7092 18.3365C27.3551 19.7315 26.5334 20.6305 25.2585 21.018C24.5927 21.2195 23.3744 21.359 21.5044 21.452C19.6628 21.5605 17.977 21.607 16.4187 21.607L14.1663 21.7C8.23061 21.7 4.53321 21.452 3.07408 21.018C1.79912 20.6305 0.977473 19.7315 0.623316 18.3365C0.439155 17.608 0.311658 16.6315 0.226661 15.3915C0.127497 14.1515 0.0849976 13.082 0.0849976 12.152L0 10.85C0 7.4555 0.22666 4.96 0.623316 3.3635C0.977473 1.9685 1.79912 1.0695 3.07408 0.682C3.7399 0.4805 4.9582 0.341 6.82814 0.248C8.66976 0.1395 10.3555 0.0929999 11.9138 0.0929999L14.1663 0C20.1019 0 23.7993 0.248 25.2585 0.682C26.5334 1.0695 27.3551 1.9685 27.7092 3.3635Z" fill="white"/>
</svg>
